<svg width="1024" height="1024" viewBox="0 0 1024 1024" fill="none" xmlns="http://www.w3.org/2000/svg">
<path opacity="0.8" d="M358.75 634.5C494.474 634.5 604.5 524.474 604.5 388.75C604.5 253.026 494.474 143 358.75 143C223.026 143 113 253.026 113 388.75C113 524.474 223.026 634.5 358.75 634.5Z" fill="#E8847A"/>
<path opacity="0.8" d="M665.938 634.5C801.661 634.5 911.688 524.474 911.688 388.75C911.688 253.026 801.661 143 665.938 143C530.214 143 420.188 253.026 420.188 388.75C420.188 524.474 530.214 634.5 665.938 634.5Z" fill="#5EC99A"/>
<path opacity="0.8" d="M512.344 880.25C648.068 880.25 758.094 770.224 758.094 634.5C758.094 498.776 648.068 388.75 512.344 388.75C376.62 388.75 266.594 498.776 266.594 634.5C266.594 770.224 376.62 880.25 512.344 880.25Z" fill="#5A9FD4"/>
</svg>
